<svg width="534" height="250" viewBox="0 0 534 250" fill="none" xmlns="http://www.w3.org/2000/svg">
<g clip-path="url(#clip0_210_80)">
<path d="M88.896 94.008C88.704 95.544 88.704 95.832 87.264 97.464C76.032 109.656 66.24 116.76 51.744 124.248L50.688 124.632C51.264 124.92 51.744 125.208 52.032 125.496C56.544 129.24 55.104 137.304 53.472 141.336C50.016 149.784 41.76 159.864 42.432 169.368C42.432 171.96 42.912 173.208 45.792 172.92C52.32 172.536 52.608 166.584 58.464 166.2C59.52 166.104 59.808 166.2 60.96 166.68C61.056 166.872 61.056 167.928 61.056 168.024C61.44 173.4 57.888 176.376 54.624 179.736C52.032 181.752 48.48 183.672 44.832 183.768C37.536 183.96 33.696 177.24 33.12 169.944C32.544 161.496 36.48 155.448 40.224 147.96C41.856 144.984 46.848 135.768 46.656 132.696C46.464 130.584 45.12 128.664 43.584 127.416L34.272 130.872L33.216 130.968C33.024 130.968 33.408 130.68 31.296 135L29.76 137.976L28.416 139.992C26.976 141.816 25.44 143.928 24.288 145.656C20.352 151.32 16.224 157.272 8.352 161.208L7.104 161.784H7.2C5.088 162.84 4.8 163.128 2.208 163.128C-0.672 163.224 -3.648 162.84 -3.168 158.808C-2.88 155.832 -0.96 155.448 0.96 155.064L0.864 155.16C1.152 155.064 1.728 154.968 1.728 154.968C13.728 149.304 20.16 136.536 25.824 125.016C26.976 122.808 27.936 120.408 29.088 118.392L30.624 116.28C30.624 116.28 30.72 116.184 30.72 116.088C24.96 119.352 19.2 122.52 12.192 122.52C3.456 122.616 0.192 117.432 1.152 109.752L1.344 108.024C2.208 106.488 6.432 99.576 7.68 98.04C8.832 96.312 10.656 94.104 13.536 94.104C15.744 94.104 17.856 95.544 17.568 98.136L17.28 99.48C14.592 102.84 10.176 108.312 9.792 111.864C9.696 112.92 12 113.4 13.536 113.4C24.672 113.304 36 101.688 43.2 94.296C47.232 90.264 50.112 87.288 52.416 87.288C55.2 87.288 57.12 88.344 56.736 91.608C56.448 94.104 54.432 96.504 52.8 98.232C52.416 98.712 51.552 99.672 51.648 99.48L50.016 101.688C47.328 105.144 39.84 117.528 38.784 120.696C44.736 120.024 57.984 111.768 62.688 107.928C64.032 106.968 69.6 102.264 70.56 101.4L74.496 97.752L74.4 97.848L77.76 94.584L78.912 93.432C80.448 91.608 82.56 89.112 85.152 89.112C88.416 89.016 89.184 91.8 88.896 94.008ZM59.3843 154.008C58.8083 147.576 62.2643 139.32 65.5283 133.752C65.8163 133.464 68.1203 130.392 68.3123 130.008C68.4083 129.816 69.4643 128.472 69.4643 128.28L76.4723 124.344C76.4723 124.152 76.9523 123.864 77.0483 123.768C77.6243 123.192 80.2163 119.832 82.6163 117.528C83.9603 116.184 89.3363 113.976 92.7923 114.168C94.3283 114.168 95.1923 114.168 96.5363 115.608C99.3203 117.816 101.432 122.808 101.72 126.936C102.008 130.104 101.144 133.752 100.568 136.44C100.568 136.824 97.9763 141.816 97.8803 142.296C100.472 142.296 104.6 141.624 106.808 140.568C109.304 139.704 113.144 135.864 113.912 133.752C114.008 133.752 116.504 132.504 116.504 132.504C117.848 132.504 118.712 135 118.904 135.96C118.808 141.72 112.28 147.096 106.328 149.112C102.104 150.552 96.1523 150.84 93.4643 151.032C87.3203 158.136 83.3843 164.376 70.1363 164.28H67.9283C63.5123 161.304 59.6723 158.52 59.3843 154.008ZM80.4083 139.8C81.1763 141.72 86.4563 142.872 88.0883 142.488C92.6003 140.664 93.4643 130.776 93.1763 127.704C93.1763 126.648 92.4083 125.016 90.9683 124.92C88.0883 124.92 84.1523 127.704 82.6163 130.008C81.1763 132.216 79.3523 137.112 80.4083 139.8ZM67.7363 153.72C67.8323 154.776 69.8483 156.12 71.0963 156.12C76.2803 156.12 80.1203 152.952 83.0963 150.264C82.6163 149.592 81.2723 149.688 80.6003 149.304C75.5123 147.48 73.2083 144.984 72.9203 140.568C72.8243 139.512 73.7843 138.456 73.6883 137.112V136.92C70.2323 138.936 66.7763 148.632 67.7363 153.72ZM112.305 156.792C112.305 149.304 116.529 146.328 124.305 144.888C126.225 144.504 131.121 144.696 132.657 144.504C133.233 141.72 132.273 131.736 131.409 131.736L129.393 125.4C127.953 126.744 120.657 136.536 118.257 139.704C116.721 141.72 114.513 143.544 113.073 143.448C110.577 143.256 108.561 141.432 109.329 139.8C110.673 137.016 113.169 135 114.801 132.6C117.393 128.76 122.001 122.808 126.705 115.416C127.377 113.496 127.185 108.216 131.505 108.12C134.385 107.832 137.937 109.368 138.129 112.248C138.321 114.936 135.537 116.568 135.633 119.064C137.937 126.552 141.489 132.024 141.681 138.84C141.777 141.432 141.585 142.776 141.489 143.544L143.409 142.968C147.921 141.624 150.897 139.416 155.793 132.888C156.081 132.504 156.945 132.312 156.657 132.312C156.081 132.312 159.921 131.736 160.113 133.752C160.113 133.752 161.361 135.096 159.825 138.552C157.137 143.256 153.969 145.944 150.129 148.44C146.865 150.168 145.329 150.648 140.625 151.032C140.817 155.064 136.017 159.576 133.425 161.4C130.161 163.416 126.417 163.896 122.481 163.896C118.065 163.896 112.305 161.4 112.305 156.792ZM121.425 156.12C121.617 156.216 122.577 156.696 124.113 156.6C126.033 156.312 130.737 154.968 131.121 152.28C124.497 150.744 120.177 154.392 121.425 156.12ZM183.306 157.752C183.786 154.488 185.898 151.416 187.242 148.344C188.49 146.328 189.258 143.064 190.218 141.144C191.082 138.648 191.85 137.208 193.002 134.424C194.538 130.872 195.594 126.36 193.482 126.648C192.042 126.84 188.586 130.392 187.53 131.832C185.706 134.136 185.226 133.56 178.986 143.736L177.066 147.48C176.682 148.152 176.106 148.248 171.882 155.544C170.442 156.888 168.81 162.36 165.546 162.36C162.954 162.36 161.514 160.248 161.034 157.752C161.514 154.488 163.626 151.416 164.97 148.344C166.41 146.04 167.178 142.104 168.426 140.472C170.73 135.768 176.01 123.96 172.266 123.384C170.346 123.768 164.394 132.696 164.106 132.696C161.514 136.056 156.618 145.176 153.162 145.176C152.01 145.176 150.858 143.832 150.666 141.336C150.666 140.952 151.626 137.304 153.738 134.52L159.69 125.496C163.146 120.216 169.578 114.168 175.818 114.168C180.138 114.168 181.482 118.008 181.482 121.752C181.386 121.944 180.042 129.24 180.138 129.336L182.442 126.36L188.394 120.024C190.986 118.296 194.058 114.84 197.61 114.84C201.642 114.84 205.386 118.296 205.098 122.712L204.714 125.4L204.138 127.128L204.714 126.36L210.666 120.024C213.258 118.296 216.33 114.84 219.882 114.84C223.914 114.84 227.658 118.296 227.37 122.712L226.986 125.4C224.874 131.352 222.378 137.976 219.498 145.848C218.922 147.48 218.922 151.8 220.842 151.992C223.338 151.8 229.194 145.176 230.634 142.104C230.826 141.72 235.626 133.752 238.218 133.656C240.714 133.656 242.058 134.232 242.058 135.48C242.058 135.96 241.77 136.44 241.674 136.92L241.002 139.32C239.466 144.12 234.474 150.648 231.114 154.488C228.522 156.696 223.242 161.784 218.346 161.784C214.122 161.784 210.762 156.504 210.762 154.584C210.762 154.008 210.474 153.144 210.474 152.664L210.57 150.072C210.57 148.44 210.858 146.328 211.434 144.6L212.394 141.624C213.258 138.84 214.026 137.4 215.274 134.424C216.81 130.872 217.866 126.36 215.754 126.648C214.314 126.84 210.858 130.392 209.802 131.832C207.978 134.136 207.498 133.56 201.258 143.736L198.57 147.672C198.09 148.344 198.378 148.248 194.154 155.544C192.714 156.888 191.082 162.36 187.818 162.36C185.226 162.36 183.786 160.248 183.306 157.752ZM243.324 162.264C239.868 162.168 232.188 156.312 232.956 148.632C233.916 136.536 237.18 128.184 246.78 118.008C251.676 113.112 259.548 110.328 266.844 110.52C272.124 110.616 273.756 118.296 273.276 121.272C272.604 126.456 270.972 130.104 267.516 134.52C264.444 138.552 253.212 146.616 245.052 146.616H242.172C241.116 148.44 242.172 153.336 245.34 154.2C248.988 154.392 252.54 154.2 257.724 150.936C263.676 147.384 270.972 138.84 274.812 138.456C276.348 138.456 276.828 139.992 276.732 140.952C276.444 145.656 268.284 153.72 259.356 158.616C253.596 161.784 247.644 162.264 243.324 162.264ZM243.9 139.032C250.428 138.168 259.356 132.408 261.852 128.184C263.676 125.976 265.116 121.464 263.004 119.544C259.164 118.296 252.444 122.808 249.66 127.032C247.26 130.488 244.476 134.808 243.804 139.032H243.9ZM269.387 152.376C269.483 144.216 276.395 132.312 279.851 125.4C280.907 122.904 285.323 114.936 287.243 112.44L280.811 112.344H281.003C281.291 112.344 275.243 111.192 274.859 108.792C274.955 106.968 277.259 104.952 277.835 103.992C278.411 104.28 278.795 103.128 282.923 103.224H288.107C290.123 103.224 292.234 103.128 293.195 101.208L296.747 96.12C297.515 94.872 299.627 91.128 300.587 89.688C303.371 85.848 305.291 82.872 307.883 80.568L310.283 78.456C310.955 77.784 312.491 76.92 313.355 76.92C314.315 76.92 316.811 80.472 316.811 82.392C316.811 85.08 314.027 87.192 312.299 89.112C310.667 91.032 302.219 102.36 302.219 102.744L309.803 103.032C311.147 102.648 316.235 102.84 319.499 102.84C321.131 103.32 323.531 104.952 323.531 106.488C323.531 109.176 320.747 111.192 317.195 111.768C311.627 112.728 302.507 111.48 297.227 112.632C294.827 115.224 284.747 134.232 282.539 139.896C279.467 146.136 279.467 146.904 279.371 150.648C279.371 151.32 279.659 152.856 281.963 152.856C282.731 152.856 284.267 152.664 287.915 150.744C290.699 149.88 301.355 140.664 302.411 139.224L302.987 138.36C304.043 137.496 305.291 136.248 306.347 136.248C307.115 136.248 308.939 135.48 309.611 135.96C310.379 136.536 310.187 138.168 310.187 139.32C310.091 141.72 303.947 148.824 301.643 151.224C296.267 157.56 286.475 162.36 279.562 162.36C273.898 162.36 269.291 157.464 269.387 152.376ZM321.878 88.824C323.126 85.752 324.854 81.048 329.942 80.952C335.126 80.856 338.678 85.176 338.678 90.648C338.678 93.624 335.51 97.752 332.438 97.752C324.278 97.752 322.742 91.416 321.878 88.824ZM312.662 162.072C307.286 162.072 299.798 160.44 299.798 153.528C299.798 145.656 303.926 134.712 308.054 127.896C309.878 123.96 311.222 122.712 312.47 120.216C313.334 118.488 316.886 114.552 319.574 114.552C321.59 114.552 322.454 116.856 322.454 120.216C322.454 121.368 322.262 122.52 321.686 123.192L317.75 129.048C313.814 134.904 310.454 141.336 309.206 147.96C307.766 151.704 312.086 153.24 313.91 152.664C320.246 151.416 323.51 145.656 325.718 142.68L329.942 135.96C331.19 134.904 332.054 133.944 334.262 133.944C336.566 133.944 336.374 135.864 336.086 137.784C334.646 147.192 321.206 162.072 312.662 162.072ZM322.576 160.056C321.904 157.464 324.112 154.104 325.264 151.896L327.184 147.288C332.752 129.912 342.16 105.816 347.056 96.12C351.28 86.616 360.016 70.872 368.368 70.872C370.864 70.872 373.744 74.232 374.8 75.768C376.24 79.224 376.144 81.144 376.048 85.464C375.76 93.24 371.344 102.072 367.792 107.64C363.376 114.552 352.816 123.48 344.752 127.608C343.696 129.912 342.64 132.312 342.736 132.312C347.92 128.856 354.928 125.976 360.304 123.384C361.744 122.328 371.056 117.816 372.784 117.912C374.512 118.008 378.928 118.872 379.504 123C379.312 126.456 378.256 128.856 375.856 129.528C374.32 129.816 373.552 128.376 372.112 128.856C366.64 130.776 354.16 136.344 352.336 138.36C352.336 143.256 353.2 148.152 354.832 153.816C354.928 154.488 357.328 155.352 357.52 155.352C361.168 155.16 365.968 151.992 370.576 148.056C374.8 144.504 377.968 140.664 379.696 138.264C381.328 135.96 382.48 133.656 384.496 133.752C385.072 133.656 386.896 134.712 386.896 135.288C386.896 139.704 384.592 144.504 381.616 148.632C377.872 153.816 372.496 157.656 369.04 159.768C367.312 160.824 361.552 163.704 359.056 163.8C353.968 163.8 347.824 161.688 346.48 156.216C344.944 153.336 343.696 147.864 344.56 143.832C344.464 143.832 343.984 143.544 343.888 143.64C343.6 143.736 342.736 144.12 342.544 144.312C340.528 145.848 337.456 148.632 334.672 153.336C333.904 154.68 334.576 153.624 333.712 155.544C333.616 157.656 332.464 160.632 331.312 162.264C331.312 162.264 329.68 162.552 329.488 162.552C327.088 162.744 323.152 162.168 322.576 160.056ZM347.728 115.992C352.144 113.88 356.08 110.904 361.072 103.32C364.144 98.808 368.656 89.688 368.944 84.6C369.04 82.104 368.56 81.624 367.408 80.952H366.832C365.296 80.856 363.856 82.296 362.416 85.272C359.44 88.344 354.064 100.728 354.064 100.728C351.76 105.432 350.416 108.216 348.784 113.016C348.784 113.112 348.592 114.456 348.496 114.552C347.536 117.048 348.784 113.208 347.728 115.992ZM437.407 138.552C437.791 143.928 432.703 149.496 429.439 153.24C426.751 155.544 419.839 160.92 413.983 160.92C410.239 160.92 406.015 154.968 406.015 152.184C406.015 151.32 406.207 149.112 406.303 148.728C405.343 149.592 404.095 150.84 403.807 151.128C403.711 151.224 402.943 151.992 402.943 152.184C398.143 156.312 394.495 160.44 386.335 160.44C380.383 160.44 377.311 153.816 377.503 146.808C377.695 139.032 383.167 129.72 389.311 123.288C394.399 118.008 402.559 114.36 410.623 114.36C412.927 114.36 415.807 115.128 416.959 116.376C416.959 117.048 418.783 118.68 418.879 119.448C420.511 116.28 423.103 116.376 423.871 116.28C425.887 116.376 426.463 119.928 426.463 121.368C426.463 123.576 421.759 130.68 421.567 131.064C421.087 132.024 419.071 134.616 418.591 135.096C416.191 138.456 414.079 142.392 414.079 146.328C414.079 147.768 414.751 150.936 415.807 151.32C419.551 152.184 425.407 147 426.751 145.464C428.479 143.544 433.183 137.88 434.719 136.344C435.295 136.344 436.063 137.4 437.023 137.304H437.119C437.311 137.688 437.311 138.168 437.407 138.552ZM412.639 128.28C412.927 127.224 413.119 126.072 413.119 124.824C413.119 123.768 411.775 121.656 410.527 121.656C405.631 121.656 399.295 125.304 395.647 129.528C390.655 135.288 386.815 140.76 386.815 146.232C386.815 148.728 387.583 150.552 389.695 151.128C393.823 150.552 397.855 145.56 400.831 142.968C403.039 141.048 408.991 133.464 412.639 128.28Z" fill="#661D5A"/>
</g>
<defs>
<clipPath id="clip0_210_80">
<rect width="534" height="250" fill="white"/>
</clipPath>
</defs>
</svg>
