<svg width="442" height="116" viewBox="0 0 442 116" fill="none" xmlns="http://www.w3.org/2000/svg">
<path d="M92.896 26.008C92.704 27.544 92.704 27.832 91.264 29.464C80.032 41.656 70.24 48.76 55.744 56.248L54.688 56.632C55.264 56.92 55.744 57.208 56.032 57.496C60.544 61.24 59.104 69.304 57.472 73.336C54.016 81.784 45.76 91.864 46.432 101.368C46.432 103.96 46.912 105.208 49.792 104.92C56.32 104.536 56.608 98.584 62.464 98.2C63.52 98.104 63.808 98.2 64.96 98.68C65.056 98.872 65.056 99.928 65.056 100.024C65.44 105.4 61.888 108.376 58.624 111.736C56.032 113.752 52.48 115.672 48.832 115.768C41.536 115.96 37.696 109.24 37.12 101.944C36.544 93.496 40.48 87.448 44.224 79.96C45.856 76.984 50.848 67.768 50.656 64.696C50.464 62.584 49.12 60.664 47.584 59.416L38.272 62.872L37.216 62.968C37.024 62.968 37.408 62.68 35.296 67L33.76 69.976L32.416 71.992C30.976 73.816 29.44 75.928 28.288 77.656C24.352 83.32 20.224 89.272 12.352 93.208L11.104 93.784H11.2C9.088 94.84 8.8 95.128 6.208 95.128C3.328 95.224 0.352 94.84 0.832 90.808C1.12 87.832 3.04 87.448 4.96 87.064L4.864 87.16C5.152 87.064 5.728 86.968 5.728 86.968C17.728 81.304 24.16 68.536 29.824 57.016C30.976 54.808 31.936 52.408 33.088 50.392L34.624 48.28C34.624 48.28 34.72 48.184 34.72 48.088C28.96 51.352 23.2 54.52 16.192 54.52C7.456 54.616 4.192 49.432 5.152 41.752L5.344 40.024C6.208 38.488 10.432 31.576 11.68 30.04C12.832 28.312 14.656 26.104 17.536 26.104C19.744 26.104 21.856 27.544 21.568 30.136L21.28 31.48C18.592 34.84 14.176 40.312 13.792 43.864C13.696 44.92 16 45.4 17.536 45.4C28.672 45.304 40 33.688 47.2 26.296C51.232 22.264 54.112 19.288 56.416 19.288C59.2 19.288 61.12 20.344 60.736 23.608C60.448 26.104 58.432 28.504 56.8 30.232C56.416 30.712 55.552 31.672 55.648 31.48L54.016 33.688C51.328 37.144 43.84 49.528 42.784 52.696C48.736 52.024 61.984 43.768 66.688 39.928C68.032 38.968 73.6 34.264 74.56 33.4L78.496 29.752L78.4 29.848L81.76 26.584L82.912 25.432C84.448 23.608 86.56 21.112 89.152 21.112C92.416 21.016 93.184 23.8 92.896 26.008ZM63.3843 86.008C62.8083 79.576 66.2643 71.32 69.5283 65.752C69.8163 65.464 72.1203 62.392 72.3123 62.008C72.4083 61.816 73.4643 60.472 73.4643 60.28L80.4723 56.344C80.4723 56.152 80.9523 55.864 81.0483 55.768C81.6243 55.192 84.2163 51.832 86.6163 49.528C87.9603 48.184 93.3363 45.976 96.7923 46.168C98.3283 46.168 99.1923 46.168 100.536 47.608C103.32 49.816 105.432 54.808 105.72 58.936C106.008 62.104 105.144 65.752 104.568 68.44C104.568 68.824 101.976 73.816 101.88 74.296C104.472 74.296 108.6 73.624 110.808 72.568C113.304 71.704 117.144 67.864 117.912 65.752C118.008 65.752 120.504 64.504 120.504 64.504C121.848 64.504 122.712 67 122.904 67.96C122.808 73.72 116.28 79.096 110.328 81.112C106.104 82.552 100.152 82.84 97.4643 83.032C91.3203 90.136 87.3843 96.376 74.1363 96.28H71.9283C67.5123 93.304 63.6723 90.52 63.3843 86.008ZM84.4083 71.8C85.1763 73.72 90.4563 74.872 92.0883 74.488C96.6003 72.664 97.4643 62.776 97.1763 59.704C97.1763 58.648 96.4083 57.016 94.9683 56.92C92.0883 56.92 88.1523 59.704 86.6163 62.008C85.1763 64.216 83.3523 69.112 84.4083 71.8ZM71.7363 85.72C71.8323 86.776 73.8483 88.12 75.0963 88.12C80.2803 88.12 84.1203 84.952 87.0963 82.264C86.6163 81.592 85.2723 81.688 84.6003 81.304C79.5123 79.48 77.2083 76.984 76.9203 72.568C76.8243 71.512 77.7843 70.456 77.6883 69.112V68.92C74.2323 70.936 70.7763 80.632 71.7363 85.72ZM116.305 88.792C116.305 81.304 120.529 78.328 128.305 76.888C130.225 76.504 135.121 76.696 136.657 76.504C137.233 73.72 136.273 63.736 135.409 63.736L133.393 57.4C131.953 58.744 124.657 68.536 122.257 71.704C120.721 73.72 118.513 75.544 117.073 75.448C114.577 75.256 112.561 73.432 113.329 71.8C114.673 69.016 117.169 67 118.801 64.6C121.393 60.76 126.001 54.808 130.705 47.416C131.377 45.496 131.185 40.216 135.505 40.12C138.385 39.832 141.937 41.368 142.129 44.248C142.321 46.936 139.537 48.568 139.633 51.064C141.937 58.552 145.489 64.024 145.681 70.84C145.777 73.432 145.585 74.776 145.489 75.544L147.409 74.968C151.921 73.624 154.897 71.416 159.793 64.888C160.081 64.504 160.945 64.312 160.657 64.312C160.081 64.312 163.921 63.736 164.113 65.752C164.113 65.752 165.361 67.096 163.825 70.552C161.137 75.256 157.969 77.944 154.129 80.44C150.865 82.168 149.329 82.648 144.625 83.032C144.817 87.064 140.017 91.576 137.425 93.4C134.161 95.416 130.417 95.896 126.481 95.896C122.065 95.896 116.305 93.4 116.305 88.792ZM125.425 88.12C125.617 88.216 126.577 88.696 128.113 88.6C130.033 88.312 134.737 86.968 135.121 84.28C128.497 82.744 124.177 86.392 125.425 88.12ZM187.306 89.752C187.786 86.488 189.898 83.416 191.242 80.344C192.49 78.328 193.258 75.064 194.218 73.144C195.082 70.648 195.85 69.208 197.002 66.424C198.538 62.872 199.594 58.36 197.482 58.648C196.042 58.84 192.586 62.392 191.53 63.832C189.706 66.136 189.226 65.56 182.986 75.736L181.066 79.48C180.682 80.152 180.106 80.248 175.882 87.544C174.442 88.888 172.81 94.36 169.546 94.36C166.954 94.36 165.514 92.248 165.034 89.752C165.514 86.488 167.626 83.416 168.97 80.344C170.41 78.04 171.178 74.104 172.426 72.472C174.73 67.768 180.01 55.96 176.266 55.384C174.346 55.768 168.394 64.696 168.106 64.696C165.514 68.056 160.618 77.176 157.162 77.176C156.01 77.176 154.858 75.832 154.666 73.336C154.666 72.952 155.626 69.304 157.738 66.52L163.69 57.496C167.146 52.216 173.578 46.168 179.818 46.168C184.138 46.168 185.482 50.008 185.482 53.752C185.386 53.944 184.042 61.24 184.138 61.336L186.442 58.36L192.394 52.024C194.986 50.296 198.058 46.84 201.61 46.84C205.642 46.84 209.386 50.296 209.098 54.712L208.714 57.4L208.138 59.128L208.714 58.36L214.666 52.024C217.258 50.296 220.33 46.84 223.882 46.84C227.914 46.84 231.658 50.296 231.37 54.712L230.986 57.4C228.874 63.352 226.378 69.976 223.498 77.848C222.922 79.48 222.922 83.8 224.842 83.992C227.338 83.8 233.194 77.176 234.634 74.104C234.826 73.72 239.626 65.752 242.218 65.656C244.714 65.656 246.058 66.232 246.058 67.48C246.058 67.96 245.77 68.44 245.674 68.92L245.002 71.32C243.466 76.12 238.474 82.648 235.114 86.488C232.522 88.696 227.242 93.784 222.346 93.784C218.122 93.784 214.762 88.504 214.762 86.584C214.762 86.008 214.474 85.144 214.474 84.664L214.57 82.072C214.57 80.44 214.858 78.328 215.434 76.6L216.394 73.624C217.258 70.84 218.026 69.4 219.274 66.424C220.81 62.872 221.866 58.36 219.754 58.648C218.314 58.84 214.858 62.392 213.802 63.832C211.978 66.136 211.498 65.56 205.258 75.736L202.57 79.672C202.09 80.344 202.378 80.248 198.154 87.544C196.714 88.888 195.082 94.36 191.818 94.36C189.226 94.36 187.786 92.248 187.306 89.752ZM247.324 94.264C243.868 94.168 236.188 88.312 236.956 80.632C237.916 68.536 241.18 60.184 250.78 50.008C255.676 45.112 263.548 42.328 270.844 42.52C276.124 42.616 277.756 50.296 277.276 53.272C276.604 58.456 274.972 62.104 271.516 66.52C268.444 70.552 257.212 78.616 249.052 78.616H246.172C245.116 80.44 246.172 85.336 249.34 86.2C252.988 86.392 256.54 86.2 261.724 82.936C267.676 79.384 274.972 70.84 278.812 70.456C280.348 70.456 280.828 71.992 280.732 72.952C280.444 77.656 272.284 85.72 263.356 90.616C257.596 93.784 251.644 94.264 247.324 94.264ZM247.9 71.032C254.428 70.168 263.356 64.408 265.852 60.184C267.676 57.976 269.116 53.464 267.004 51.544C263.164 50.296 256.444 54.808 253.66 59.032C251.26 62.488 248.476 66.808 247.804 71.032H247.9ZM273.387 84.376C273.483 76.216 280.395 64.312 283.851 57.4C284.907 54.904 289.323 46.936 291.243 44.44L284.811 44.344H285.003C285.291 44.344 279.243 43.192 278.859 40.792C278.955 38.968 281.259 36.952 281.835 35.992C282.411 36.28 282.795 35.128 286.923 35.224H292.107C294.123 35.224 296.234 35.128 297.195 33.208L300.747 28.12C301.515 26.872 303.627 23.128 304.587 21.688C307.371 17.848 309.291 14.872 311.883 12.568L314.283 10.456C314.955 9.784 316.491 8.92 317.355 8.92C318.315 8.92 320.811 12.472 320.811 14.392C320.811 17.08 318.027 19.192 316.299 21.112C314.667 23.032 306.219 34.36 306.219 34.744L313.803 35.032C315.147 34.648 320.235 34.84 323.499 34.84C325.131 35.32 327.531 36.952 327.531 38.488C327.531 41.176 324.747 43.192 321.195 43.768C315.627 44.728 306.507 43.48 301.227 44.632C298.827 47.224 288.747 66.232 286.539 71.896C283.467 78.136 283.467 78.904 283.371 82.648C283.371 83.32 283.659 84.856 285.963 84.856C286.731 84.856 288.267 84.664 291.915 82.744C294.699 81.88 305.355 72.664 306.411 71.224L306.987 70.36C308.043 69.496 309.291 68.248 310.347 68.248C311.115 68.248 312.939 67.48 313.611 67.96C314.379 68.536 314.187 70.168 314.187 71.32C314.091 73.72 307.947 80.824 305.643 83.224C300.267 89.56 290.475 94.36 283.562 94.36C277.898 94.36 273.291 89.464 273.387 84.376ZM325.878 20.824C327.126 17.752 328.854 13.048 333.942 12.952C339.126 12.856 342.678 17.176 342.678 22.648C342.678 25.624 339.51 29.752 336.438 29.752C328.278 29.752 326.742 23.416 325.878 20.824ZM316.662 94.072C311.286 94.072 303.798 92.44 303.798 85.528C303.798 77.656 307.926 66.712 312.054 59.896C313.878 55.96 315.222 54.712 316.47 52.216C317.334 50.488 320.886 46.552 323.574 46.552C325.59 46.552 326.454 48.856 326.454 52.216C326.454 53.368 326.262 54.52 325.686 55.192L321.75 61.048C317.814 66.904 314.454 73.336 313.206 79.96C311.766 83.704 316.086 85.24 317.91 84.664C324.246 83.416 327.51 77.656 329.718 74.68L333.942 67.96C335.19 66.904 336.054 65.944 338.262 65.944C340.566 65.944 340.374 67.864 340.086 69.784C338.646 79.192 325.206 94.072 316.662 94.072ZM326.576 92.056C325.904 89.464 328.112 86.104 329.264 83.896L331.184 79.288C336.752 61.912 346.16 37.816 351.056 28.12C355.28 18.616 364.016 2.872 372.368 2.872C374.864 2.872 377.744 6.232 378.8 7.768C380.24 11.224 380.144 13.144 380.048 17.464C379.76 25.24 375.344 34.072 371.792 39.64C367.376 46.552 356.816 55.48 348.752 59.608C347.696 61.912 346.64 64.312 346.736 64.312C351.92 60.856 358.928 57.976 364.304 55.384C365.744 54.328 375.056 49.816 376.784 49.912C378.512 50.008 382.928 50.872 383.504 55C383.312 58.456 382.256 60.856 379.856 61.528C378.32 61.816 377.552 60.376 376.112 60.856C370.64 62.776 358.16 68.344 356.336 70.36C356.336 75.256 357.2 80.152 358.832 85.816C358.928 86.488 361.328 87.352 361.52 87.352C365.168 87.16 369.968 83.992 374.576 80.056C378.8 76.504 381.968 72.664 383.696 70.264C385.328 67.96 386.48 65.656 388.496 65.752C389.072 65.656 390.896 66.712 390.896 67.288C390.896 71.704 388.592 76.504 385.616 80.632C381.872 85.816 376.496 89.656 373.04 91.768C371.312 92.824 365.552 95.704 363.056 95.8C357.968 95.8 351.824 93.688 350.48 88.216C348.944 85.336 347.696 79.864 348.56 75.832C348.464 75.832 347.984 75.544 347.888 75.64C347.6 75.736 346.736 76.12 346.544 76.312C344.528 77.848 341.456 80.632 338.672 85.336C337.904 86.68 338.576 85.624 337.712 87.544C337.616 89.656 336.464 92.632 335.312 94.264C335.312 94.264 333.68 94.552 333.488 94.552C331.088 94.744 327.152 94.168 326.576 92.056ZM351.728 47.992C356.144 45.88 360.08 42.904 365.072 35.32C368.144 30.808 372.656 21.688 372.944 16.6C373.04 14.104 372.56 13.624 371.408 12.952H370.832C369.296 12.856 367.856 14.296 366.416 17.272C363.44 20.344 358.064 32.728 358.064 32.728C355.76 37.432 354.416 40.216 352.784 45.016C352.784 45.112 352.592 46.456 352.496 46.552C351.536 49.048 352.784 45.208 351.728 47.992ZM441.407 70.552C441.791 75.928 436.703 81.496 433.439 85.24C430.751 87.544 423.839 92.92 417.983 92.92C414.239 92.92 410.015 86.968 410.015 84.184C410.015 83.32 410.207 81.112 410.303 80.728C409.343 81.592 408.095 82.84 407.807 83.128C407.711 83.224 406.943 83.992 406.943 84.184C402.143 88.312 398.495 92.44 390.335 92.44C384.383 92.44 381.311 85.816 381.503 78.808C381.695 71.032 387.167 61.72 393.311 55.288C398.399 50.008 406.559 46.36 414.623 46.36C416.927 46.36 419.807 47.128 420.959 48.376C420.959 49.048 422.783 50.68 422.879 51.448C424.511 48.28 427.103 48.376 427.871 48.28C429.887 48.376 430.463 51.928 430.463 53.368C430.463 55.576 425.759 62.68 425.567 63.064C425.087 64.024 423.071 66.616 422.591 67.096C420.191 70.456 418.079 74.392 418.079 78.328C418.079 79.768 418.751 82.936 419.807 83.32C423.551 84.184 429.407 79 430.751 77.464C432.479 75.544 437.183 69.88 438.719 68.344C439.295 68.344 440.063 69.4 441.023 69.304H441.119C441.311 69.688 441.311 70.168 441.407 70.552ZM416.639 60.28C416.927 59.224 417.119 58.072 417.119 56.824C417.119 55.768 415.775 53.656 414.527 53.656C409.631 53.656 403.295 57.304 399.647 61.528C394.655 67.288 390.815 72.76 390.815 78.232C390.815 80.728 391.583 82.552 393.695 83.128C397.823 82.552 401.855 77.56 404.831 74.968C407.039 73.048 412.991 65.464 416.639 60.28Z" fill="#661D5A"/>
</svg>
