<svg width="534" height="250" viewBox="0 0 534 250" fill="none" xmlns="http://www.w3.org/2000/svg">
<path d="M69.696 179.016C68.16 176.808 67.584 176.424 66.72 173.544C66.528 172.104 66.048 168.84 66.432 167.208C67.488 158.472 69.504 150.792 73.536 142.632C74.016 141.864 80.256 130.728 79.872 130.152C81.12 127.656 84.576 122.856 84.288 120.072V119.496C75.744 131.208 65.472 140.808 55.392 150.888C53.184 153.096 53.952 154.056 50.592 154.344C50.112 154.44 48.672 154.44 48.288 154.44C45.6 149.448 45.408 145.128 46.08 139.464C46.368 138.6 46.56 132.36 46.848 130.056C46.848 129.864 46.848 129.576 46.752 128.904L45.696 129.48L23.232 156.936C20.064 159.144 17.664 163.176 13.248 163.56C10.56 163.752 6.336 163.464 4.704 160.68C1.824 158.28 2.208 144.072 2.4 144.36C1.824 140.808 3.264 137.64 7.2 137.064C9.12 136.872 10.944 138.408 11.136 140.424C11.424 143.976 10.272 147.336 10.56 150.888C10.656 151.272 11.04 152.52 11.04 152.904C11.232 153.288 11.424 153.48 11.808 153.48C14.304 153.288 15.456 151.848 16.896 150.024C18.432 148.584 24.192 141.768 25.344 140.328C25.632 139.848 26.592 138.312 26.976 137.832L52.8 105.48C53.184 103.944 53.568 104.328 54.336 103.08C56.352 100.008 57.12 97.032 61.248 96.648C63.456 96.552 65.376 97.224 65.472 99.528C65.856 103.464 63.936 106.536 62.304 109.8C58.464 117.576 56.352 127.08 55.2 135.624C55.2 135.72 54.816 136.68 54.816 136.776C54.816 137.064 55.392 137.352 55.776 137.256L55.968 137.16C69.888 122.184 69.792 122.568 71.712 120.552L86.496 103.368C90.816 99.528 93.6 96.744 98.112 93.288C98.4 93.192 99.072 93.192 99.168 93.192C102.336 92.904 102.432 93.768 103.488 96.168C103.488 96.264 104.16 97.224 104.16 97.32L104.256 97.512C104.544 100.968 103.296 101.352 101.952 104.424C97.248 114.408 92.64 124.2 87.84 134.184C87.648 134.28 87.36 135.048 87.264 135.336C83.808 145.416 74.112 157.992 75.072 169.128C75.168 170.184 76.128 171.048 77.28 170.952C86.112 170.184 91.008 157.32 95.04 156.936C96.864 156.84 97.728 158.952 97.824 160.584C98.688 170.28 87.84 176.136 81.216 180.456C79.584 180.264 78.336 181.128 76.992 181.224C73.248 181.512 72.672 179.88 69.696 179.016ZM155.407 144.552C155.791 149.928 150.703 155.496 147.439 159.24C144.751 161.544 137.839 166.92 131.983 166.92C128.239 166.92 124.015 160.968 124.015 158.184C124.015 157.32 124.207 155.112 124.303 154.728C123.343 155.592 122.095 156.84 121.807 157.128C121.711 157.224 120.943 157.992 120.943 158.184C116.143 162.312 112.495 166.44 104.335 166.44C98.3828 166.44 95.3108 159.816 95.5028 152.808C95.6948 145.032 101.167 135.72 107.311 129.288C112.399 124.008 120.559 120.36 128.623 120.36C130.927 120.36 133.807 121.128 134.959 122.376C134.959 123.048 136.783 124.68 136.879 125.448C138.511 122.28 141.103 122.376 141.871 122.28C143.887 122.376 144.463 125.928 144.463 127.368C144.463 129.576 139.759 136.68 139.567 137.064C139.087 138.024 137.071 140.616 136.591 141.096C134.191 144.456 132.079 148.392 132.079 152.328C132.079 153.768 132.751 156.936 133.807 157.32C137.551 158.184 143.407 153 144.751 151.464C146.479 149.544 151.183 143.88 152.719 142.344C153.295 142.344 154.063 143.4 155.023 143.304H155.119C155.311 143.688 155.311 144.168 155.407 144.552ZM130.639 134.28C130.927 133.224 131.119 132.072 131.119 130.824C131.119 129.768 129.775 127.656 128.527 127.656C123.631 127.656 117.295 131.304 113.647 135.528C108.655 141.288 104.815 146.76 104.815 152.232C104.815 154.728 105.583 156.552 107.695 157.128C111.823 156.552 115.855 151.56 118.831 148.968C121.039 147.048 126.991 139.464 130.639 134.28ZM152.618 162.792C152.618 155.304 156.842 152.328 164.618 150.888C166.538 150.504 171.434 150.696 172.97 150.504C173.546 147.72 172.586 137.736 171.722 137.736L169.706 131.4C168.266 132.744 160.97 142.536 158.57 145.704C157.034 147.72 154.826 149.544 153.386 149.448C150.89 149.256 148.874 147.432 149.642 145.8C150.986 143.016 153.482 141 155.114 138.6C157.706 134.76 162.314 128.808 167.018 121.416C167.69 119.496 167.498 114.216 171.818 114.12C174.698 113.832 178.25 115.368 178.442 118.248C178.634 120.936 175.85 122.568 175.946 125.064C178.25 132.552 181.802 138.024 181.994 144.84C182.09 147.432 181.898 148.776 181.802 149.544L183.722 148.968C188.234 147.624 191.21 145.416 196.106 138.888C196.394 138.504 197.258 138.312 196.97 138.312C196.394 138.312 200.234 137.736 200.426 139.752C200.426 139.752 201.674 141.096 200.138 144.552C197.45 149.256 194.281 151.944 190.442 154.44C187.178 156.168 185.642 156.648 180.938 157.032C181.13 161.064 176.33 165.576 173.738 167.4C170.474 169.416 166.73 169.896 162.794 169.896C158.378 169.896 152.618 167.4 152.618 162.792ZM161.738 162.12C161.93 162.216 162.89 162.696 164.426 162.6C166.346 162.312 171.05 160.968 171.434 158.28C164.81 156.744 160.49 160.392 161.738 162.12ZM222.371 113.064C221.987 107.976 228.515 101.736 233.699 96.744C235.427 95.208 236.483 94.344 238.595 91.752L240.419 91.464C243.779 91.272 244.931 94.056 245.027 96.072C245.411 99.048 242.531 101.256 240.419 102.888L239.075 103.848C237.635 105.384 230.051 111.24 228.611 112.776C227.075 114.216 225.539 114.408 224.291 114.504L222.371 113.064ZM225.731 166.92C221.987 166.92 218.243 160.584 218.243 157.8C218.243 157.32 218.243 156.84 218.339 156.168C218.339 156.168 218.243 156.072 218.243 155.976C218.243 155.4 218.627 153.96 218.627 153.864C216.803 154.344 215.843 156.84 215.555 157.128C215.459 157.224 214.115 157.608 214.115 157.8C209.315 161.928 206.243 166.44 198.083 166.44C192.131 166.44 189.059 159.816 189.251 152.808C189.443 145.032 195.107 136.008 201.251 129.576C206.339 124.296 214.307 120.36 222.371 120.36C224.675 120.36 227.555 121.128 228.707 122.376C228.707 123.048 230.531 124.68 230.627 125.448C232.259 122.28 234.851 122.376 235.619 122.28C237.635 122.376 238.115 127.08 238.211 127.368C238.403 127.464 233.027 136.68 233.027 137.064C233.027 138.024 230.819 140.616 230.339 141.096C227.939 144.456 225.827 148.392 225.827 152.328C225.827 153.768 226.499 157.416 227.555 157.8C231.299 158.664 237.25 153.096 238.499 151.464C239.939 149.544 244.931 143.88 246.467 142.344C247.043 142.344 247.811 143.4 248.771 143.304H248.867C249.059 143.688 249.059 144.168 249.155 144.552C249.539 149.928 244.451 155.496 241.187 159.24C238.499 161.544 231.587 166.92 225.731 166.92ZM222.275 127.656C217.379 127.656 211.043 130.536 207.395 134.76C202.403 140.52 197.507 147.72 197.507 153.192C197.507 155.688 198.659 157.224 200.771 157.8C204.899 157.224 209.603 151.56 212.579 148.968C214.786 147.048 220.739 139.464 224.387 134.28C224.675 133.224 224.867 132.072 224.867 130.824C224.867 129.768 223.523 127.656 222.275 127.656ZM280.93 158.664C279.394 164.04 277.186 167.688 275.266 172.584C275.074 173.16 272.866 177.576 271.618 180.744C277.186 181.704 287.842 192.072 289.57 192.072C289.57 194.952 290.146 198.504 286.594 198.504C281.026 198.504 274.21 189.48 268.45 188.616L267.01 191.496C260.098 199.464 251.458 211.752 240.898 211.752C239.938 211.752 238.21 210.888 237.25 210.312C233.89 207.816 231.01 203.592 231.01 199.464C231.01 192.552 236.482 186.6 242.626 182.76C247.234 179.304 257.314 177.672 262.402 178.44C264.514 176.808 266.05 173.352 267.106 171.048C267.682 170.088 269.218 167.016 270.754 163.56C271.042 162.504 271.522 161.544 271.234 160.296C270.946 160.2 270.274 159.432 270.178 159.432C269.89 159.432 265.09 161.256 265.09 161.352C260.578 162.984 256.642 165.576 251.458 165.576C249.346 165.576 247.33 162.408 247.33 160.488C247.33 159.24 247.618 158.28 247.906 156.936C252.034 151.656 255.394 148.008 259.714 142.248C263.458 137.256 268.162 131.592 271.906 126.792C271.234 126.792 263.554 129.384 262.882 129.384C261.346 129.768 259.522 131.016 257.794 131.016C255.394 131.016 251.17 128.808 251.17 126.696C251.17 124.488 253.762 121.128 256.354 121.128C257.122 121.128 257.602 121.704 258.274 121.704H258.85C261.058 121.32 273.154 118.344 275.362 117.768C275.746 117.672 279.202 116.328 279.682 116.328C282.85 116.04 285.634 119.784 285.634 122.856C285.634 126.216 281.506 128.136 279.682 130.344C272.77 138.984 266.626 145.224 260.386 154.248H261.346C261.826 154.152 270.274 150.12 272.098 149.448C273.634 148.872 276.706 149.448 277.762 149.448C281.506 150.984 280.93 154.632 281.218 158.472L280.93 158.664ZM239.266 200.04C239.266 201.48 239.65 202.632 241.186 202.632C245.218 202.632 248.962 198.888 251.746 196.392C253.282 195.048 257.026 189.672 257.89 187.944V187.272C255.778 186.408 248.674 188.424 247.426 189.576C244.258 191.112 239.266 196.584 239.266 200.04ZM295.449 168.264C291.993 168.168 284.313 162.312 285.081 154.632C286.041 142.536 289.305 134.184 298.905 124.008C303.801 119.112 311.673 116.328 318.969 116.52C324.249 116.616 325.881 124.296 325.401 127.272C324.729 132.456 323.097 136.104 319.641 140.52C316.569 144.552 305.337 152.616 297.177 152.616H294.297C293.241 154.44 294.297 159.336 297.465 160.2C301.113 160.392 304.665 160.2 309.849 156.936C315.801 153.384 323.097 144.84 326.937 144.456C328.473 144.456 328.953 145.992 328.857 146.952C328.569 151.656 320.409 159.72 311.481 164.616C305.721 167.784 299.769 168.264 295.449 168.264ZM296.025 145.032C302.553 144.168 311.481 138.408 313.977 134.184C315.801 131.976 317.241 127.464 315.129 125.544C311.289 124.296 304.569 128.808 301.785 133.032C299.385 136.488 296.601 140.808 295.929 145.032H296.025Z" fill="#661D5A"/>
<path d="M258.952 92.96C259.336 90.272 260.968 89.888 262.696 89.888C266.632 89.888 266.44 92 267.304 94.88C268.456 96.8 271.336 99.488 271.432 99.872C271.528 99.488 275.656 96.032 275.848 95.744C278.728 92.864 281.704 89.792 284.008 89.792C286.6 89.792 287.464 90.368 287.176 93.248C286.792 95.552 285.256 96.608 283.912 97.664L282.952 98.432V98.336C280.936 100.256 277.768 103.04 276.808 104.288C275.848 105.44 274.984 106.4 272.968 108.224C272.008 109.376 271.336 109.856 269.704 109.856C267.496 109.856 265.672 108.128 265.96 105.344C265.576 103.328 262.408 99.68 261.448 98.048C260.488 96.704 259.624 95.36 258.952 94.112C258.952 94.112 258.856 93.44 258.952 92.96Z" fill="#661D5A"/>
</svg>
