<svg width="329" height="151" viewBox="0 0 329 151" fill="none" xmlns="http://www.w3.org/2000/svg">
<path d="M69.696 118.016C68.16 115.808 67.584 115.424 66.72 112.544C66.528 111.104 66.048 107.84 66.432 106.208C67.488 97.472 69.504 89.792 73.536 81.632C74.016 80.864 80.256 69.728 79.872 69.152C81.12 66.656 84.576 61.856 84.288 59.072V58.496C75.744 70.208 65.472 79.808 55.392 89.888C53.184 92.096 53.952 93.056 50.592 93.344C50.112 93.44 48.672 93.44 48.288 93.44C45.6 88.448 45.408 84.128 46.08 78.464C46.368 77.6 46.56 71.36 46.848 69.056C46.848 68.864 46.848 68.576 46.752 67.904L45.696 68.48L23.232 95.936C20.064 98.144 17.664 102.176 13.248 102.56C10.56 102.752 6.336 102.464 4.704 99.68C1.824 97.28 2.208 83.072 2.4 83.36C1.824 79.808 3.264 76.64 7.2 76.064C9.12 75.872 10.944 77.408 11.136 79.424C11.424 82.976 10.272 86.336 10.56 89.888C10.656 90.272 11.04 91.52 11.04 91.904C11.232 92.288 11.424 92.48 11.808 92.48C14.304 92.288 15.456 90.848 16.896 89.024C18.432 87.584 24.192 80.768 25.344 79.328C25.632 78.848 26.592 77.312 26.976 76.832L52.8 44.48C53.184 42.944 53.568 43.328 54.336 42.08C56.352 39.008 57.12 36.032 61.248 35.648C63.456 35.552 65.376 36.224 65.472 38.528C65.856 42.464 63.936 45.536 62.304 48.8C58.464 56.576 56.352 66.08 55.2 74.624C55.2 74.72 54.816 75.68 54.816 75.776C54.816 76.064 55.392 76.352 55.776 76.256L55.968 76.16C69.888 61.184 69.792 61.568 71.712 59.552L86.496 42.368C90.816 38.528 93.6 35.744 98.112 32.288C98.4 32.192 99.072 32.192 99.168 32.192C102.336 31.904 102.432 32.768 103.488 35.168C103.488 35.264 104.16 36.224 104.16 36.32L104.256 36.512C104.544 39.968 103.296 40.352 101.952 43.424C97.248 53.408 92.64 63.2 87.84 73.184C87.648 73.28 87.36 74.048 87.264 74.336C83.808 84.416 74.112 96.992 75.072 108.128C75.168 109.184 76.128 110.048 77.28 109.952C86.112 109.184 91.008 96.32 95.04 95.936C96.864 95.84 97.728 97.952 97.824 99.584C98.688 109.28 87.84 115.136 81.216 119.456C79.584 119.264 78.336 120.128 76.992 120.224C73.248 120.512 72.672 118.88 69.696 118.016ZM155.407 83.552C155.791 88.928 150.703 94.496 147.439 98.24C144.751 100.544 137.839 105.92 131.983 105.92C128.239 105.92 124.015 99.968 124.015 97.184C124.015 96.32 124.207 94.112 124.303 93.728C123.343 94.592 122.095 95.84 121.807 96.128C121.711 96.224 120.943 96.992 120.943 97.184C116.143 101.312 112.495 105.44 104.335 105.44C98.3828 105.44 95.3108 98.816 95.5028 91.808C95.6948 84.032 101.167 74.72 107.311 68.288C112.399 63.008 120.559 59.36 128.623 59.36C130.927 59.36 133.807 60.128 134.959 61.376C134.959 62.048 136.783 63.68 136.879 64.448C138.511 61.28 141.103 61.376 141.871 61.28C143.887 61.376 144.463 64.928 144.463 66.368C144.463 68.576 139.759 75.68 139.567 76.064C139.087 77.024 137.071 79.616 136.591 80.096C134.191 83.456 132.079 87.392 132.079 91.328C132.079 92.768 132.751 95.936 133.807 96.32C137.551 97.184 143.407 92 144.751 90.464C146.479 88.544 151.183 82.88 152.719 81.344C153.295 81.344 154.063 82.4 155.023 82.304H155.119C155.311 82.688 155.311 83.168 155.407 83.552ZM130.639 73.28C130.927 72.224 131.119 71.072 131.119 69.824C131.119 68.768 129.775 66.656 128.527 66.656C123.631 66.656 117.295 70.304 113.647 74.528C108.655 80.288 104.815 85.76 104.815 91.232C104.815 93.728 105.583 95.552 107.695 96.128C111.823 95.552 115.855 90.56 118.831 87.968C121.039 86.048 126.991 78.464 130.639 73.28ZM152.618 101.792C152.618 94.304 156.842 91.328 164.618 89.888C166.538 89.504 171.434 89.696 172.97 89.504C173.546 86.72 172.586 76.736 171.722 76.736L169.706 70.4C168.266 71.744 160.97 81.536 158.57 84.704C157.034 86.72 154.826 88.544 153.386 88.448C150.89 88.256 148.874 86.432 149.642 84.8C150.986 82.016 153.482 80 155.114 77.6C157.706 73.76 162.314 67.808 167.018 60.416C167.69 58.496 167.498 53.216 171.818 53.12C174.698 52.832 178.25 54.368 178.442 57.248C178.634 59.936 175.85 61.568 175.946 64.064C178.25 71.552 181.802 77.024 181.994 83.84C182.09 86.432 181.898 87.776 181.802 88.544L183.722 87.968C188.234 86.624 191.21 84.416 196.106 77.888C196.394 77.504 197.258 77.312 196.97 77.312C196.394 77.312 200.234 76.736 200.426 78.752C200.426 78.752 201.674 80.096 200.138 83.552C197.45 88.256 194.281 90.944 190.442 93.44C187.178 95.168 185.642 95.648 180.938 96.032C181.13 100.064 176.33 104.576 173.738 106.4C170.474 108.416 166.73 108.896 162.794 108.896C158.378 108.896 152.618 106.4 152.618 101.792ZM161.738 101.12C161.93 101.216 162.89 101.696 164.426 101.6C166.346 101.312 171.05 99.968 171.434 97.28C164.81 95.744 160.49 99.392 161.738 101.12ZM222.371 52.064C221.987 46.976 228.515 40.736 233.699 35.744C235.427 34.208 236.483 33.344 238.595 30.752L240.419 30.464C243.779 30.272 244.931 33.056 245.027 35.072C245.411 38.048 242.531 40.256 240.419 41.888L239.075 42.848C237.635 44.384 230.051 50.24 228.611 51.776C227.075 53.216 225.539 53.408 224.291 53.504L222.371 52.064ZM225.731 105.92C221.987 105.92 218.243 99.584 218.243 96.8C218.243 96.32 218.243 95.84 218.339 95.168C218.339 95.168 218.243 95.072 218.243 94.976C218.243 94.4 218.627 92.96 218.627 92.864C216.803 93.344 215.843 95.84 215.555 96.128C215.459 96.224 214.115 96.608 214.115 96.8C209.315 100.928 206.243 105.44 198.083 105.44C192.131 105.44 189.059 98.816 189.251 91.808C189.443 84.032 195.107 75.008 201.251 68.576C206.339 63.296 214.307 59.36 222.371 59.36C224.675 59.36 227.555 60.128 228.707 61.376C228.707 62.048 230.531 63.68 230.627 64.448C232.259 61.28 234.851 61.376 235.619 61.28C237.635 61.376 238.115 66.08 238.211 66.368C238.403 66.464 233.027 75.68 233.027 76.064C233.027 77.024 230.819 79.616 230.339 80.096C227.939 83.456 225.827 87.392 225.827 91.328C225.827 92.768 226.499 96.416 227.555 96.8C231.299 97.664 237.25 92.096 238.499 90.464C239.939 88.544 244.931 82.88 246.467 81.344C247.043 81.344 247.811 82.4 248.771 82.304H248.867C249.059 82.688 249.059 83.168 249.155 83.552C249.539 88.928 244.451 94.496 241.187 98.24C238.499 100.544 231.587 105.92 225.731 105.92ZM222.275 66.656C217.379 66.656 211.043 69.536 207.395 73.76C202.403 79.52 197.507 86.72 197.507 92.192C197.507 94.688 198.659 96.224 200.771 96.8C204.899 96.224 209.603 90.56 212.579 87.968C214.786 86.048 220.739 78.464 224.387 73.28C224.675 72.224 224.867 71.072 224.867 69.824C224.867 68.768 223.523 66.656 222.275 66.656ZM280.93 97.664C279.394 103.04 277.186 106.688 275.266 111.584C275.074 112.16 272.866 116.576 271.618 119.744C277.186 120.704 287.842 131.072 289.57 131.072C289.57 133.952 290.146 137.504 286.594 137.504C281.026 137.504 274.21 128.48 268.45 127.616L267.01 130.496C260.098 138.464 251.458 150.752 240.898 150.752C239.938 150.752 238.21 149.888 237.25 149.312C233.89 146.816 231.01 142.592 231.01 138.464C231.01 131.552 236.482 125.6 242.626 121.76C247.234 118.304 257.314 116.672 262.402 117.44C264.514 115.808 266.05 112.352 267.106 110.048C267.682 109.088 269.218 106.016 270.754 102.56C271.042 101.504 271.522 100.544 271.234 99.296C270.946 99.2 270.274 98.432 270.178 98.432C269.89 98.432 265.09 100.256 265.09 100.352C260.578 101.984 256.642 104.576 251.458 104.576C249.346 104.576 247.33 101.408 247.33 99.488C247.33 98.24 247.618 97.28 247.906 95.936C252.034 90.656 255.394 87.008 259.714 81.248C263.458 76.256 268.162 70.592 271.906 65.792C271.234 65.792 263.554 68.384 262.882 68.384C261.346 68.768 259.522 70.016 257.794 70.016C255.394 70.016 251.17 67.808 251.17 65.696C251.17 63.488 253.762 60.128 256.354 60.128C257.122 60.128 257.602 60.704 258.274 60.704H258.85C261.058 60.32 273.154 57.344 275.362 56.768C275.746 56.672 279.202 55.328 279.682 55.328C282.85 55.04 285.634 58.784 285.634 61.856C285.634 65.216 281.506 67.136 279.682 69.344C272.77 77.984 266.626 84.224 260.386 93.248H261.346C261.826 93.152 270.274 89.12 272.098 88.448C273.634 87.872 276.706 88.448 277.762 88.448C281.506 89.984 280.93 93.632 281.218 97.472L280.93 97.664ZM239.266 139.04C239.266 140.48 239.65 141.632 241.186 141.632C245.218 141.632 248.962 137.888 251.746 135.392C253.282 134.048 257.026 128.672 257.89 126.944V126.272C255.778 125.408 248.674 127.424 247.426 128.576C244.258 130.112 239.266 135.584 239.266 139.04ZM295.449 107.264C291.993 107.168 284.313 101.312 285.081 93.632C286.041 81.536 289.305 73.184 298.905 63.008C303.801 58.112 311.673 55.328 318.969 55.52C324.249 55.616 325.881 63.296 325.401 66.272C324.729 71.456 323.097 75.104 319.641 79.52C316.569 83.552 305.337 91.616 297.177 91.616H294.297C293.241 93.44 294.297 98.336 297.465 99.2C301.113 99.392 304.665 99.2 309.849 95.936C315.801 92.384 323.097 83.84 326.937 83.456C328.473 83.456 328.953 84.992 328.857 85.952C328.569 90.656 320.409 98.72 311.481 103.616C305.721 106.784 299.769 107.264 295.449 107.264ZM296.025 84.032C302.553 83.168 311.481 77.408 313.977 73.184C315.801 70.976 317.241 66.464 315.129 64.544C311.289 63.296 304.569 67.808 301.785 72.032C299.385 75.488 296.601 79.808 295.929 84.032H296.025Z" fill="#661D5A"/>
<path d="M258.952 31.96C259.336 29.272 260.968 28.888 262.696 28.888C266.632 28.888 266.44 31 267.304 33.88C268.456 35.8 271.336 38.488 271.432 38.872C271.528 38.488 275.656 35.032 275.848 34.744C278.728 31.864 281.704 28.792 284.008 28.792C286.6 28.792 287.464 29.368 287.176 32.248C286.792 34.552 285.256 35.608 283.912 36.664L282.952 37.432V37.336C280.936 39.256 277.768 42.04 276.808 43.288C275.848 44.44 274.984 45.4 272.968 47.224C272.008 48.376 271.336 48.856 269.704 48.856C267.496 48.856 265.672 47.128 265.96 44.344C265.576 42.328 262.408 38.68 261.448 37.048C260.488 35.704 259.624 34.36 258.952 33.112C258.952 33.112 258.856 32.44 258.952 31.96Z" fill="#661D5A"/>
</svg>
