<svg width="392" height="115" viewBox="0 0 392 115" fill="none" xmlns="http://www.w3.org/2000/svg">
<path d="M0.576 86.584C1.728 85.432 3.456 83.512 5.184 83.512C8.832 83.512 10.176 88.504 13.344 88.504C23.04 88.504 27.84 70.072 33.024 59.8C37.056 49.816 42.336 31.384 51.648 23.608C51.648 23.224 50.784 23.224 50.784 23.224C42.048 23.608 14.88 28.504 14.88 44.344C14.88 50.296 19.68 51.256 26.304 51.64C29.184 52.696 27.936 54.52 28.704 56.344C28.8 59.512 26.88 60.664 24.096 61.048H21.792C18.144 61.048 13.056 59.608 9.984 56.728C7.584 54.424 4.608 47.992 4.608 46.072V44.152C4.608 32.536 15.072 23.128 24.768 18.232C31.584 14.872 38.88 13.336 46.656 13.336C61.824 13.336 82.944 20.152 82.944 40.6C82.944 53.464 70.08 63.544 57.024 63.544C53.184 63.544 50.304 62.488 47.904 60.952C46.656 60.184 44.832 58.072 44.448 58.072C44.064 58.456 41.28 65.56 39.936 69.496L38.976 72.376C37.344 77.08 34.176 82.648 31.2 87.352C26.016 94.552 19.104 98.296 12.384 98.296C11.616 98.296 10.944 98.2 10.272 98.104C5.952 97.144 0.576 89.56 0.576 86.584ZM47.136 50.68C47.136 52.024 55.392 53.848 57.312 53.848C65.856 53.848 72.864 45.976 72.864 38.2C72.864 33.88 71.616 29.56 63.168 27.832C54.72 32.536 49.92 41.944 47.328 49.432C47.232 49.816 47.136 50.392 47.136 50.68ZM88.5428 94.264C85.0868 94.168 77.4068 88.312 78.1748 80.632C79.1348 68.536 82.3988 60.184 91.9988 50.008C96.8948 45.112 104.767 42.328 112.063 42.52C117.343 42.616 118.975 50.296 118.495 53.272C117.823 58.456 116.191 62.104 112.735 66.52C109.663 70.552 98.4308 78.616 90.2708 78.616H87.3907C86.3348 80.44 87.3907 85.336 90.5588 86.2C94.2068 86.392 97.7588 86.2 102.943 82.936C108.895 79.384 116.191 70.84 120.031 70.456C121.567 70.456 122.047 71.992 121.951 72.952C121.663 77.656 113.503 85.72 104.575 90.616C98.8148 93.784 92.8628 94.264 88.5428 94.264ZM89.1188 71.032C95.6468 70.168 104.575 64.408 107.071 60.184C108.895 57.976 110.335 53.464 108.223 51.544C104.383 50.296 97.6628 54.808 94.8788 59.032C92.4788 62.488 89.6948 66.808 89.0228 71.032H89.1188ZM145.613 89.464C144.365 87.448 143.117 84.088 144.077 79.672H143.597C142.253 81.016 137.549 85.144 136.301 86.488C133.133 89.464 129.293 91.96 122.669 92.056H121.805C121.517 91.96 118.925 90.616 118.445 90.52C117.197 89.944 114.893 85.72 114.797 83.032C115.565 65.08 133.229 46.648 148.685 46.456C149.645 46.456 151.373 46.072 152.333 46.936C152.717 47.416 154.157 48.088 154.445 48.568C157.037 44.344 157.517 42.616 160.685 36.952L167.309 25.72C168.653 23.416 170.189 20.632 171.341 18.616C172.589 16.12 174.413 13.432 175.853 10.84C176.333 9.88 177.293 9.496 177.965 8.34399C179.501 5.75199 181.037 3.736 184.781 3.64C187.757 3.64 188.717 6.328 188.909 9.112C189.101 12.952 184.301 15.928 182.189 18.904C177.677 25.336 170.189 39.352 166.061 45.976C161.933 52.696 158.381 59.32 155.597 66.424C155.405 67 151.949 71.992 151.853 72.664C151.853 74.776 150.125 82.36 153.869 82.648C156.941 82.648 159.437 78.808 161.933 77.176C163.949 75.64 169.133 69.496 171.917 69.496C174.125 69.4 173.165 70.744 173.261 73.048C172.013 78.712 158.573 92.728 151.565 92.056C149.741 92.056 147.053 90.808 145.613 89.464ZM123.341 80.536C123.245 82.36 126.509 84.088 128.237 82.456C131.117 80.92 136.301 76.408 137.645 75.256C139.853 72.952 145.709 66.04 146.861 63.928C147.725 62.392 149.453 59.32 150.701 57.88C150.413 57.496 148.109 55.192 147.725 55.192C138.317 55.384 125.357 69.592 123.341 80.536ZM187.534 20.824C188.782 17.752 190.51 13.048 195.598 12.952C200.782 12.856 204.334 17.176 204.334 22.648C204.334 25.624 201.166 29.752 198.094 29.752C189.934 29.752 188.398 23.416 187.534 20.824ZM178.318 94.072C172.942 94.072 165.454 92.44 165.454 85.528C165.454 77.656 169.582 66.712 173.71 59.896C175.534 55.96 176.878 54.712 178.126 52.216C178.99 50.488 182.542 46.552 185.23 46.552C187.246 46.552 188.11 48.856 188.11 52.216C188.11 53.368 187.918 54.52 187.342 55.192L183.406 61.048C179.47 66.904 176.11 73.336 174.862 79.96C173.422 83.704 177.742 85.24 179.566 84.664C185.902 83.416 189.166 77.656 191.374 74.68L195.598 67.96C196.846 66.904 197.71 65.944 199.918 65.944C202.222 65.944 202.03 67.864 201.742 69.784C200.302 79.192 186.862 94.072 178.318 94.072ZM188.232 92.056C187.56 89.464 189.768 86.104 190.92 83.896L192.84 79.288C198.408 61.912 207.816 37.816 212.712 28.12C216.936 18.616 225.672 2.872 234.024 2.872C236.52 2.872 239.4 6.232 240.456 7.768C241.896 11.224 241.8 13.144 241.704 17.464C241.416 25.24 237 34.072 233.448 39.64C229.032 46.552 218.472 55.48 210.408 59.608C209.352 61.912 208.296 64.312 208.392 64.312C213.576 60.856 220.584 57.976 225.96 55.384C227.4 54.328 236.712 49.816 238.44 49.912C240.168 50.008 244.584 50.872 245.16 55C244.968 58.456 243.912 60.856 241.512 61.528C239.976 61.816 239.208 60.376 237.768 60.856C232.296 62.776 219.816 68.344 217.992 70.36C217.992 75.256 218.856 80.152 220.488 85.816C220.584 86.488 222.984 87.352 223.176 87.352C226.824 87.16 231.624 83.992 236.232 80.056C240.456 76.504 243.624 72.664 245.352 70.264C246.984 67.96 248.136 65.656 250.152 65.752C250.728 65.656 252.552 66.712 252.552 67.288C252.552 71.704 250.248 76.504 247.272 80.632C243.528 85.816 238.152 89.656 234.696 91.768C232.968 92.824 227.208 95.704 224.712 95.8C219.624 95.8 213.48 93.688 212.136 88.216C210.6 85.336 209.352 79.864 210.216 75.832C210.12 75.832 209.64 75.544 209.544 75.64C209.256 75.736 208.392 76.12 208.2 76.312C206.184 77.848 203.112 80.632 200.328 85.336C199.56 86.68 200.232 85.624 199.368 87.544C199.272 89.656 198.12 92.632 196.968 94.264C196.968 94.264 195.336 94.552 195.144 94.552C192.744 94.744 188.808 94.168 188.232 92.056ZM213.384 47.992C217.8 45.88 221.736 42.904 226.728 35.32C229.8 30.808 234.312 21.688 234.6 16.6C234.696 14.104 234.216 13.624 233.064 12.952H232.488C230.952 12.856 229.512 14.296 228.072 17.272C225.096 20.344 219.72 32.728 219.72 32.728C217.416 37.432 216.072 40.216 214.44 45.016C214.44 45.112 214.248 46.456 214.152 46.552C213.192 49.048 214.44 45.208 213.384 47.992ZM273.591 39.448C273.207 34.36 279.735 28.12 284.919 23.128C286.647 21.592 287.703 20.728 289.815 18.136L291.639 17.848C294.999 17.656 296.151 20.44 296.247 22.456C296.631 25.432 293.751 27.64 291.639 29.272L290.295 30.232C288.855 31.768 281.271 37.624 279.831 39.16C278.295 40.6 276.759 40.792 275.511 40.888L273.591 39.448ZM265.527 85.72C264.759 86.008 261.975 88.312 261.495 88.888L260.151 89.752C257.079 91.192 254.295 92.44 250.743 92.44C245.367 92.536 242.007 87.544 241.719 83.032C241.527 78.808 244.503 70.168 246.999 65.08C248.919 60.472 256.983 46.36 260.727 46.36C263.127 46.264 264.759 47.896 264.855 50.392C264.951 51.256 264.663 52.024 264.279 52.888C261.207 58.168 257.175 64.408 255.831 66.712C254.007 69.976 250.359 76.312 250.551 80.44C250.551 81.016 249.879 83.512 251.799 83.512L253.239 83.224C257.559 82.072 260.919 77.272 264.087 72.856L264.471 72.088C265.719 70.456 268.503 66.424 269.271 64.984L276.759 52.408C277.815 50.488 279.831 47.32 282.519 46.264C286.167 46.168 287.319 48.088 287.511 51.544C287.607 53.368 285.687 55.864 284.247 58.36L279.255 66.136C277.815 68.44 276.855 70.456 275.895 73.432C274.935 76.888 273.399 81.592 275.031 83.992C276.375 85.432 283.479 81.784 286.839 78.52C289.047 76.408 292.407 72.28 295.095 72.184C297.495 72.088 298.071 73.432 298.071 75.16C298.071 75.544 297.975 76.312 297.879 76.6C294.615 84.28 284.631 91.768 275.031 92.92H275.223C274.647 93.016 274.071 93.016 273.687 93.016C270.615 93.016 266.199 91 265.527 85.72ZM306.359 88.504C306.359 84.28 307.223 83.896 307.895 79.288C310.679 73.624 315.863 64.984 320.855 59.128L320.759 58.36C319.415 58.456 317.591 58.936 316.247 58.936C314.423 59.032 312.215 57.592 310.871 57.112C310.295 57.016 303.095 69.208 301.751 70.936C300.311 73.72 295.799 78.136 292.535 78.808C290.807 79.192 286.87 79.192 286.87 76.6C290.327 73.24 294.551 67 297.815 61.528C298.487 60.28 303.671 52.888 303.575 51.448C303.479 50.488 302.327 49.816 302.231 48.376C301.943 43.768 305.111 39.448 307.415 36.664C308.951 34.84 312.695 33.112 315.479 33.016C317.879 33.016 321.431 34.264 321.527 36.472C321.719 39.448 319.319 44.056 317.303 46.84L315.767 49.048C316.247 49.336 318.071 50.776 318.839 50.776C322.199 50.68 326.135 49.048 328.247 46.648H328.151C329.687 44.536 330.839 44.056 333.431 43.96C336.599 43.96 337.847 46.264 337.943 47.704C337.943 47.992 337.559 49.048 337.079 49.816L336.695 50.68L328.247 61.72C327.959 62.104 326.903 63.64 326.327 64.12V64.024C323.927 66.904 320.663 72.664 318.647 76.696L316.631 80.824C315.671 82.936 315.767 84.184 316.343 84.952C317.975 86.872 322.967 83.416 328.151 78.52C331.991 74.872 336.311 68.152 337.655 67.192C338.711 67.384 341.495 66.904 342.359 67.768L342.743 68.344C341.399 77.176 334.487 84.472 327.383 89.56C322.871 92.824 317.591 94.264 312.119 93.88C309.335 93.4 306.359 88.984 306.359 88.504ZM391.563 70.552C391.947 75.928 386.859 81.496 383.595 85.24C380.907 87.544 373.995 92.92 368.139 92.92C364.395 92.92 360.171 86.968 360.171 84.184C360.171 83.32 360.363 81.112 360.459 80.728C359.499 81.592 358.251 82.84 357.963 83.128C357.867 83.224 357.099 83.992 357.099 84.184C352.299 88.312 348.651 92.44 340.491 92.44C334.539 92.44 331.467 85.816 331.659 78.808C331.851 71.032 337.323 61.72 343.467 55.288C348.555 50.008 356.715 46.36 364.779 46.36C367.083 46.36 369.963 47.128 371.115 48.376C371.115 49.048 372.939 50.68 373.035 51.448C374.667 48.28 377.259 48.376 378.027 48.28C380.043 48.376 380.619 51.928 380.619 53.368C380.619 55.576 375.915 62.68 375.723 63.064C375.243 64.024 373.227 66.616 372.747 67.096C370.347 70.456 368.235 74.392 368.235 78.328C368.235 79.768 368.907 82.936 369.963 83.32C373.707 84.184 379.563 79 380.907 77.464C382.635 75.544 387.339 69.88 388.875 68.344C389.451 68.344 390.219 69.4 391.179 69.304H391.275C391.467 69.688 391.467 70.168 391.563 70.552ZM366.795 60.28C367.083 59.224 367.275 58.072 367.275 56.824C367.275 55.768 365.931 53.656 364.683 53.656C359.787 53.656 353.451 57.304 349.803 61.528C344.811 67.288 340.971 72.76 340.971 78.232C340.971 80.728 341.739 82.552 343.851 83.128C347.979 82.552 352.011 77.56 354.987 74.968C357.195 73.048 363.147 65.464 366.795 60.28Z" fill="#661D5A"/>
</svg>
