<svg width="534" height="250" viewBox="0 0 534 250" fill="none" xmlns="http://www.w3.org/2000/svg">
<path d="M0.576 154.584C1.728 153.432 3.456 151.512 5.184 151.512C8.832 151.512 10.176 156.504 13.344 156.504C23.04 156.504 27.84 138.072 33.024 127.8C37.056 117.816 42.336 99.384 51.648 91.608C51.648 91.224 50.784 91.224 50.784 91.224C42.048 91.608 14.88 96.504 14.88 112.344C14.88 118.296 19.68 119.256 26.304 119.64C29.184 120.696 27.936 122.52 28.704 124.344C28.8 127.512 26.88 128.664 24.096 129.048H21.792C18.144 129.048 13.056 127.608 9.984 124.728C7.584 122.424 4.608 115.992 4.608 114.072V112.152C4.608 100.536 15.072 91.128 24.768 86.232C31.584 82.872 38.88 81.336 46.656 81.336C61.824 81.336 82.944 88.152 82.944 108.6C82.944 121.464 70.08 131.544 57.024 131.544C53.184 131.544 50.304 130.488 47.904 128.952C46.656 128.184 44.832 126.072 44.448 126.072C44.064 126.456 41.28 133.56 39.936 137.496L38.976 140.376C37.344 145.08 34.176 150.648 31.2 155.352C26.016 162.552 19.104 166.296 12.384 166.296C11.616 166.296 10.944 166.2 10.272 166.104C5.952 165.144 0.576 157.56 0.576 154.584ZM47.136 118.68C47.136 120.024 55.392 121.848 57.312 121.848C65.856 121.848 72.864 113.976 72.864 106.2C72.864 101.88 71.616 97.56 63.168 95.832C54.72 100.536 49.92 109.944 47.328 117.432C47.232 117.816 47.136 118.392 47.136 118.68ZM88.5428 162.264C85.0868 162.168 77.4068 156.312 78.1748 148.632C79.1348 136.536 82.3988 128.184 91.9988 118.008C96.8948 113.112 104.767 110.328 112.063 110.52C117.343 110.616 118.975 118.296 118.495 121.272C117.823 126.456 116.191 130.104 112.735 134.52C109.663 138.552 98.4308 146.616 90.2708 146.616H87.3907C86.3348 148.44 87.3907 153.336 90.5588 154.2C94.2068 154.392 97.7588 154.2 102.943 150.936C108.895 147.384 116.191 138.84 120.031 138.456C121.567 138.456 122.047 139.992 121.951 140.952C121.663 145.656 113.503 153.72 104.575 158.616C98.8148 161.784 92.8628 162.264 88.5428 162.264ZM89.1188 139.032C95.6468 138.168 104.575 132.408 107.071 128.184C108.895 125.976 110.335 121.464 108.223 119.544C104.383 118.296 97.6628 122.808 94.8788 127.032C92.4788 130.488 89.6948 134.808 89.0228 139.032H89.1188ZM145.613 157.464C144.365 155.448 143.117 152.088 144.077 147.672H143.597C142.253 149.016 137.549 153.144 136.301 154.488C133.133 157.464 129.293 159.96 122.669 160.056H121.805C121.517 159.96 118.925 158.616 118.445 158.52C117.197 157.944 114.893 153.72 114.797 151.032C115.565 133.08 133.229 114.648 148.685 114.456C149.645 114.456 151.373 114.072 152.333 114.936C152.717 115.416 154.157 116.088 154.445 116.568C157.037 112.344 157.517 110.616 160.685 104.952L167.309 93.72C168.653 91.416 170.189 88.632 171.341 86.616C172.589 84.12 174.413 81.432 175.853 78.84C176.333 77.88 177.293 77.496 177.965 76.344C179.501 73.752 181.037 71.736 184.781 71.64C187.757 71.64 188.717 74.328 188.909 77.112C189.101 80.952 184.301 83.928 182.189 86.904C177.677 93.336 170.189 107.352 166.061 113.976C161.933 120.696 158.381 127.32 155.597 134.424C155.405 135 151.949 139.992 151.853 140.664C151.853 142.776 150.125 150.36 153.869 150.648C156.941 150.648 159.437 146.808 161.933 145.176C163.949 143.64 169.133 137.496 171.917 137.496C174.125 137.4 173.165 138.744 173.261 141.048C172.013 146.712 158.573 160.728 151.565 160.056C149.741 160.056 147.053 158.808 145.613 157.464ZM123.341 148.536C123.245 150.36 126.509 152.088 128.237 150.456C131.117 148.92 136.301 144.408 137.645 143.256C139.853 140.952 145.709 134.04 146.861 131.928C147.725 130.392 149.453 127.32 150.701 125.88C150.413 125.496 148.109 123.192 147.725 123.192C138.317 123.384 125.357 137.592 123.341 148.536ZM187.534 88.824C188.782 85.752 190.51 81.048 195.598 80.952C200.782 80.856 204.334 85.176 204.334 90.648C204.334 93.624 201.166 97.752 198.094 97.752C189.934 97.752 188.398 91.416 187.534 88.824ZM178.318 162.072C172.942 162.072 165.454 160.44 165.454 153.528C165.454 145.656 169.582 134.712 173.71 127.896C175.534 123.96 176.878 122.712 178.126 120.216C178.99 118.488 182.542 114.552 185.23 114.552C187.246 114.552 188.11 116.856 188.11 120.216C188.11 121.368 187.918 122.52 187.342 123.192L183.406 129.048C179.47 134.904 176.11 141.336 174.862 147.96C173.422 151.704 177.742 153.24 179.566 152.664C185.902 151.416 189.166 145.656 191.374 142.68L195.598 135.96C196.846 134.904 197.71 133.944 199.918 133.944C202.222 133.944 202.03 135.864 201.742 137.784C200.302 147.192 186.862 162.072 178.318 162.072ZM188.232 160.056C187.56 157.464 189.768 154.104 190.92 151.896L192.84 147.288C198.408 129.912 207.816 105.816 212.712 96.12C216.936 86.616 225.672 70.872 234.024 70.872C236.52 70.872 239.4 74.232 240.456 75.768C241.896 79.224 241.8 81.144 241.704 85.464C241.416 93.24 237 102.072 233.448 107.64C229.032 114.552 218.472 123.48 210.408 127.608C209.352 129.912 208.296 132.312 208.392 132.312C213.576 128.856 220.584 125.976 225.96 123.384C227.4 122.328 236.712 117.816 238.44 117.912C240.168 118.008 244.584 118.872 245.16 123C244.968 126.456 243.912 128.856 241.512 129.528C239.976 129.816 239.208 128.376 237.768 128.856C232.296 130.776 219.816 136.344 217.992 138.36C217.992 143.256 218.856 148.152 220.488 153.816C220.584 154.488 222.984 155.352 223.176 155.352C226.824 155.16 231.624 151.992 236.232 148.056C240.456 144.504 243.624 140.664 245.352 138.264C246.984 135.96 248.136 133.656 250.152 133.752C250.728 133.656 252.552 134.712 252.552 135.288C252.552 139.704 250.248 144.504 247.272 148.632C243.528 153.816 238.152 157.656 234.696 159.768C232.968 160.824 227.208 163.704 224.712 163.8C219.624 163.8 213.48 161.688 212.136 156.216C210.6 153.336 209.352 147.864 210.216 143.832C210.12 143.832 209.64 143.544 209.544 143.64C209.256 143.736 208.392 144.12 208.2 144.312C206.184 145.848 203.112 148.632 200.328 153.336C199.56 154.68 200.232 153.624 199.368 155.544C199.272 157.656 198.12 160.632 196.968 162.264C196.968 162.264 195.336 162.552 195.144 162.552C192.744 162.744 188.808 162.168 188.232 160.056ZM213.384 115.992C217.8 113.88 221.736 110.904 226.728 103.32C229.8 98.808 234.312 89.688 234.6 84.6C234.696 82.104 234.216 81.624 233.064 80.952H232.488C230.952 80.856 229.512 82.296 228.072 85.272C225.096 88.344 219.72 100.728 219.72 100.728C217.416 105.432 216.072 108.216 214.44 113.016C214.44 113.112 214.248 114.456 214.152 114.552C213.192 117.048 214.44 113.208 213.384 115.992ZM273.591 107.448C273.207 102.36 279.735 96.12 284.919 91.128C286.647 89.592 287.703 88.728 289.815 86.136L291.639 85.848C294.999 85.656 296.151 88.44 296.247 90.456C296.631 93.432 293.751 95.64 291.639 97.272L290.295 98.232C288.855 99.768 281.271 105.624 279.831 107.16C278.295 108.6 276.759 108.792 275.511 108.888L273.591 107.448ZM265.527 153.72C264.759 154.008 261.975 156.312 261.495 156.888L260.151 157.752C257.079 159.192 254.295 160.44 250.743 160.44C245.367 160.536 242.007 155.544 241.719 151.032C241.527 146.808 244.503 138.168 246.999 133.08C248.919 128.472 256.983 114.36 260.727 114.36C263.127 114.264 264.759 115.896 264.855 118.392C264.951 119.256 264.663 120.024 264.279 120.888C261.207 126.168 257.175 132.408 255.831 134.712C254.007 137.976 250.359 144.312 250.551 148.44C250.551 149.016 249.879 151.512 251.799 151.512L253.239 151.224C257.559 150.072 260.919 145.272 264.087 140.856L264.471 140.088C265.719 138.456 268.503 134.424 269.271 132.984L276.759 120.408C277.815 118.488 279.831 115.32 282.519 114.264C286.167 114.168 287.319 116.088 287.511 119.544C287.607 121.368 285.687 123.864 284.247 126.36L279.255 134.136C277.815 136.44 276.855 138.456 275.895 141.432C274.935 144.888 273.399 149.592 275.031 151.992C276.375 153.432 283.479 149.784 286.839 146.52C289.047 144.408 292.407 140.28 295.095 140.184C297.495 140.088 298.071 141.432 298.071 143.16C298.071 143.544 297.975 144.312 297.879 144.6C294.615 152.28 284.631 159.768 275.031 160.92H275.223C274.647 161.016 274.071 161.016 273.687 161.016C270.615 161.016 266.199 159 265.527 153.72ZM306.359 156.504C306.359 152.28 307.223 151.896 307.895 147.288C310.679 141.624 315.863 132.984 320.855 127.128L320.759 126.36C319.415 126.456 317.591 126.936 316.247 126.936C314.423 127.032 312.215 125.592 310.871 125.112C310.295 125.016 303.095 137.208 301.751 138.936C300.311 141.72 295.799 146.136 292.535 146.808C290.807 147.192 286.87 147.192 286.87 144.6C290.327 141.24 294.551 135 297.815 129.528C298.487 128.28 303.671 120.888 303.575 119.448C303.479 118.488 302.327 117.816 302.231 116.376C301.943 111.768 305.111 107.448 307.415 104.664C308.951 102.84 312.695 101.112 315.479 101.016C317.879 101.016 321.431 102.264 321.527 104.472C321.719 107.448 319.319 112.056 317.303 114.84L315.767 117.048C316.247 117.336 318.071 118.776 318.839 118.776C322.199 118.68 326.135 117.048 328.247 114.648H328.151C329.687 112.536 330.839 112.056 333.431 111.96C336.599 111.96 337.847 114.264 337.943 115.704C337.943 115.992 337.559 117.048 337.079 117.816L336.695 118.68L328.247 129.72C327.959 130.104 326.903 131.64 326.327 132.12V132.024C323.927 134.904 320.663 140.664 318.647 144.696L316.631 148.824C315.671 150.936 315.767 152.184 316.343 152.952C317.975 154.872 322.967 151.416 328.151 146.52C331.991 142.872 336.311 136.152 337.655 135.192C338.711 135.384 341.495 134.904 342.359 135.768L342.743 136.344C341.399 145.176 334.487 152.472 327.383 157.56C322.871 160.824 317.591 162.264 312.119 161.88C309.335 161.4 306.359 156.984 306.359 156.504ZM391.563 138.552C391.947 143.928 386.859 149.496 383.595 153.24C380.907 155.544 373.995 160.92 368.139 160.92C364.395 160.92 360.171 154.968 360.171 152.184C360.171 151.32 360.363 149.112 360.459 148.728C359.499 149.592 358.251 150.84 357.963 151.128C357.867 151.224 357.099 151.992 357.099 152.184C352.299 156.312 348.651 160.44 340.491 160.44C334.539 160.44 331.467 153.816 331.659 146.808C331.851 139.032 337.323 129.72 343.467 123.288C348.555 118.008 356.715 114.36 364.779 114.36C367.083 114.36 369.963 115.128 371.115 116.376C371.115 117.048 372.939 118.68 373.035 119.448C374.667 116.28 377.259 116.376 378.027 116.28C380.043 116.376 380.619 119.928 380.619 121.368C380.619 123.576 375.915 130.68 375.723 131.064C375.243 132.024 373.227 134.616 372.747 135.096C370.347 138.456 368.235 142.392 368.235 146.328C368.235 147.768 368.907 150.936 369.963 151.32C373.707 152.184 379.563 147 380.907 145.464C382.635 143.544 387.339 137.88 388.875 136.344C389.451 136.344 390.219 137.4 391.179 137.304H391.275C391.467 137.688 391.467 138.168 391.563 138.552ZM366.795 128.28C367.083 127.224 367.275 126.072 367.275 124.824C367.275 123.768 365.931 121.656 364.683 121.656C359.787 121.656 353.451 125.304 349.803 129.528C344.811 135.288 340.971 140.76 340.971 146.232C340.971 148.728 341.739 150.552 343.851 151.128C347.979 150.552 352.011 145.56 354.987 142.968C357.195 141.048 363.147 133.464 366.795 128.28Z" fill="#661D5A"/>
</svg>
